<?xml version="1.0" encoding="UTF-8" standalone="no"?>
<svg width="16px" height="16px" viewBox="0 0 16 16" version="1.1" xmlns="http://www.w3.org/2000/svg" xmlns:xlink="http://www.w3.org/1999/xlink" xmlns:sketch="http://www.bohemiancoding.com/sketch/ns">
    <!-- Generator: Sketch 3.5.2 (25235) - http://www.bohemiancoding.com/sketch -->
    <title>Group 3</title>
    <desc>Created with Sketch.</desc>
    <defs></defs>
    <g id="elements" stroke="none" stroke-width="1" fill="none" fill-rule="evenodd" sketch:type="MSPage">
        <g id="UI" sketch:type="MSArtboardGroup" transform="translate(-216.000000, -394.000000)">
            <g id="Group-3" sketch:type="MSLayerGroup" transform="translate(216.000000, 394.000000)">
                <path d="M1.66268321,6.7782398 C1.80369432,6.7782398 5.1907634,10.5439061 5.3775626,10.7259236 C5.5643618,10.9079412 5.64885799,11.0343288 5.94567017,10.7471491 C6.24248235,10.4599694 14.1921523,2 14.3415714,2 C14.4909905,2 16,3.45166593 16,3.55266379 C16,3.64473062 6.37780762,13.7493436 6.14593506,13.9757935 C5.9140625,14.2022434 5.6293335,14.1244945 5.5435791,14.0437602 C5.45782471,13.9630259 0,8.36408354 0,8.30014283 C0,8.23620212 1.5216721,6.7782398 1.66268321,6.7782398 Z" id="Path-51" fill="#555555" sketch:type="MSShapeGroup"></path>
                <rect id="Rectangle-249-Copy-5" sketch:type="MSShapeGroup" x="0" y="0" width="16" height="16"></rect>
            </g>
        </g>
    </g>
</svg>