<?xml version="1.0" encoding="UTF-8" standalone="no"?>
<svg width="160px" height="30px" viewBox="0 0 160 30" version="1.1" xmlns="http://www.w3.org/2000/svg" xmlns:xlink="http://www.w3.org/1999/xlink" xmlns:sketch="http://www.bohemiancoding.com/sketch/ns">
    <!-- Generator: Sketch 3.5.2 (25235) - http://www.bohemiancoding.com/sketch -->
    <title>posterchild</title>
    <desc>Created with Sketch.</desc>
    <defs></defs>
    <g id="Page-1" stroke="none" stroke-width="1" fill="none" fill-rule="evenodd" sketch:type="MSPage">
        <g id="Models" sketch:type="MSArtboardGroup" transform="translate(-760.000000, -153.000000)" fill="#4A4A4A">
            <path d="M769.969074,162.662334 C771.901541,162.662334 772.913786,164.656149 772.913786,168.214341 C772.913786,172.508712 771.993563,174.747919 770.061097,174.747919 C768.496719,174.747919 767.116385,172.999497 767.116385,170.23883 L767.116385,166.741986 C767.116385,164.318734 768.435371,162.662334 769.969074,162.662334 L769.969074,162.662334 Z M767.116385,172.846127 C767.729867,174.870616 769.324919,176.281623 771.870867,176.281623 C775.643778,176.281623 778.711186,173.091519 778.711186,168.183667 C778.711186,163.490534 775.797149,160.484474 772.238956,160.484474 C769.539637,160.484474 767.729867,162.294245 767.116385,164.5948 L767.116385,160.791215 L760,160.791215 L760,160.852563 C761.411007,161.680763 761.625726,162.1102 761.625726,164.196037 L761.625726,179.349031 C761.625726,181.37352 761.50303,181.772283 760.184044,182.631157 L760.184044,182.692505 L768.527393,182.692505 L768.527393,182.631157 C767.208408,181.772283 767.116385,181.37352 767.116385,179.349031 L767.116385,172.846127 Z M787.613205,176.281623 C792.24499,176.281623 796.048576,173.152867 796.048576,168.367712 C796.048576,163.61323 792.24499,160.484474 787.613205,160.484474 C782.98142,160.484474 779.177834,163.61323 779.177834,168.367712 C779.177834,173.152867 782.98142,176.281623 787.613205,176.281623 L787.613205,176.281623 Z M787.613205,175.760164 C785.711412,175.760164 785.005909,173.214216 785.005909,168.367712 C785.005909,163.551882 785.711412,161.005934 787.613205,161.005934 C789.514998,161.005934 790.220501,163.551882 790.220501,168.367712 C790.220501,173.214216 789.514998,175.760164 787.613205,175.760164 L787.613205,175.760164 Z M802.159254,161.005934 C804.337113,161.005934 806.668343,162.78503 808.018002,165.423001 L808.07935,165.423001 L808.07935,160.4538 C807.527217,160.913911 807.067106,161.220652 806.361602,161.220652 C805.257335,161.220652 804.09172,160.484474 802.159254,160.484474 C799.030498,160.484474 796.607246,162.386267 796.607246,165.238956 C796.607246,168.183667 798.263646,169.717371 802.036557,170.882986 C804.337113,171.58849 805.686772,171.987253 805.686772,173.55163 C805.686772,175.023986 804.582506,175.760164 803.079476,175.760164 C800.380157,175.760164 798.324994,173.981068 796.576572,170.698941 L796.515224,170.698941 L796.852639,176.312297 C797.282076,175.974882 797.650165,175.637468 798.417017,175.637468 C799.521283,175.637468 800.962965,176.281623 803.079476,176.281623 C806.760365,176.281623 809.306313,174.318482 809.306313,171.189727 C809.306313,168.214341 807.649913,166.834008 803.662283,165.576371 C800.840269,164.717497 799.889372,164.28806 799.889372,162.907726 C799.889372,161.772786 800.77892,161.005934 802.159254,161.005934 L802.159254,161.005934 Z M820.968999,170.330853 C820.570236,172.447364 819.650014,173.674327 818.239006,173.674327 C817.012043,173.674327 816.398562,172.784779 816.398562,171.220401 L816.398562,161.558067 L820.846303,161.558067 L820.999673,160.791215 L816.398562,160.791215 L816.398562,155.453926 L816.091821,155.453926 C814.987554,158.552008 812.47228,160.545823 809.31285,161.220652 L809.31285,161.558067 L810.96925,161.558067 L810.907902,171.097704 C810.877228,174.625223 812.963065,176.281623 815.78508,176.281623 C819.527318,176.281623 820.938325,173.39826 821.337088,170.453549 L820.968999,170.330853 Z M829.196188,160.484474 C824.809796,160.484474 821.159581,163.582556 821.159581,168.398386 C821.159581,173.39826 824.779122,176.281623 829.165514,176.281623 C832.662359,176.281623 835.423026,174.410505 836.312574,171.128379 L836.097855,171.036356 C835.146959,172.938149 833.521233,173.766349 831.650114,173.766349 C828.705403,173.766349 826.711588,171.496467 826.711588,167.692882 L836.465944,167.692882 C836.465944,163.643904 834.134714,160.484474 829.196188,160.484474 L829.196188,160.484474 Z M826.742262,167.048726 C826.80361,163.429186 827.601136,161.005934 829.196188,161.005934 C830.944611,161.005934 831.190003,163.61323 831.190003,167.048726 L826.742262,167.048726 Z M847.4538,166.834008 C847.637845,166.987378 848.067282,167.140749 848.558067,167.140749 C850.214467,167.140749 851.717497,165.913786 851.717497,163.674578 C851.717497,161.864808 850.429186,160.484474 848.435371,160.484474 C845.705378,160.484474 844.325045,162.969074 843.588867,165.729741 L843.588867,160.791215 L836.472481,160.791215 L836.472481,160.852563 C837.914163,161.680763 838.098207,162.1102 838.098207,164.196037 L838.098207,172.631408 C838.098207,174.655897 838.006185,175.05466 836.656526,175.913534 L836.656526,175.974882 L845.950771,175.974882 L845.950771,175.913534 C844.294371,175.177356 843.588867,174.655897 843.588867,172.631408 L843.588867,167.907601 C843.588867,165.208282 844.9692,163.61323 846.533578,163.61323 C847.760541,163.61323 848.435371,164.257386 848.435371,165.330978 C848.435371,166.005808 848.067282,166.588615 847.4538,166.834008 L847.4538,166.834008 Z M860.282101,161.005934 C861.815805,161.005934 862.613331,161.95683 862.613331,163.429186 C862.613331,164.5948 862.15322,165.545697 861.018279,165.545697 C860.864908,165.545697 860.65019,165.515023 860.466145,165.453675 C860.558168,166.343223 861.509064,167.232771 863.13479,167.232771 C864.607146,167.232771 866.018153,166.281875 866.018153,164.44143 C866.018153,161.926156 863.533553,160.484474 860.220753,160.484474 C855.282227,160.484474 851.417293,163.521208 851.417293,168.674452 C851.417293,173.428934 855.067508,176.281623 859.300531,176.281623 C862.705353,176.281623 865.46602,174.410505 866.324894,171.128379 L866.140849,171.036356 C865.189953,172.938149 863.594901,173.766349 861.846479,173.766349 C858.99379,173.766349 857.122671,171.527141 857.122671,167.324793 C857.122671,163.7666 858.134916,161.005934 860.282101,161.005934 L860.282101,161.005934 Z M865.687275,153 L865.687275,153.061348 C867.128957,153.766852 867.497046,154.349659 867.497046,156.404822 L867.497046,172.631408 C867.497046,174.655897 867.405024,175.05466 866.086038,175.913534 L866.086038,175.974882 L874.429387,175.974882 L874.429387,175.913534 C873.079727,175.05466 872.987705,174.655897 872.987705,172.631408 L872.987705,167.140749 C872.987705,164.380082 874.091972,163.091771 875.625676,163.091771 C877.067357,163.091771 877.680839,164.226712 877.680839,165.637719 L877.680839,172.631408 C877.680839,174.655897 877.588817,175.05466 876.269831,175.913534 L876.269831,175.974882 L884.61318,175.974882 L884.61318,175.913534 C883.26352,175.05466 883.171498,174.655897 883.171498,172.631408 L883.171498,165.791089 C883.171498,162.815704 881.637794,160.484474 878.324994,160.484474 C875.717698,160.484474 873.754557,162.018178 872.987705,164.778845 L872.987705,153 L865.687275,153 Z M885.69331,156.006059 C885.69331,157.662459 887.012295,158.950771 888.760717,158.950771 C890.539813,158.950771 891.889473,157.662459 891.889473,156.006059 C891.889473,154.349659 890.539813,153.092022 888.760717,153.092022 C887.012295,153.092022 885.69331,154.349659 885.69331,156.006059 L885.69331,156.006059 Z M891.582732,160.791215 L884.466347,160.791215 L884.466347,160.852563 C885.908028,161.680763 886.092073,162.1102 886.092073,164.196037 L886.092073,172.631408 C886.092073,174.655897 886.00005,175.05466 884.650391,175.913534 L884.650391,175.974882 L893.024414,175.974882 L893.024414,175.913534 C891.674754,175.05466 891.582732,174.655897 891.582732,172.631408 L891.582732,160.791215 Z M899.932618,153 L892.632188,153 L892.632188,153.061348 C894.073869,153.766852 894.441958,154.349659 894.441958,156.404822 L894.441958,172.631408 C894.441958,174.655897 894.349936,175.05466 893.030951,175.913534 L893.030951,175.974882 L901.374299,175.974882 L901.374299,175.913534 C900.02464,175.05466 899.932618,174.655897 899.932618,172.631408 L899.932618,153 Z M910.153622,174.103764 C908.251829,174.103764 907.208911,172.109949 907.208911,168.551756 C907.208911,164.257386 908.129133,161.987504 910.092274,161.987504 C911.656652,161.987504 913.036985,163.7666 913.036985,166.527267 L913.036985,170.024112 C913.036985,172.447364 911.718,174.103764 910.153622,174.103764 L910.153622,174.103764 Z M913.036985,163.919971 C912.392829,161.895482 910.797777,160.484474 908.282503,160.484474 C904.478918,160.484474 901.41151,163.643904 901.41151,168.551756 C901.41151,173.275564 904.325548,176.281623 907.88374,176.281623 C910.583059,176.281623 912.392829,174.471853 913.036985,172.171297 L913.036985,175.974882 L920,175.974882 C918.681015,175.05466 918.527644,174.563875 918.527644,172.631408 L918.527644,153 L911.19654,153 C912.638222,153.766852 913.036985,154.349659 913.036985,156.404822 L913.036985,163.919971 Z" id="posterchild" sketch:type="MSShapeGroup"></path>
        </g>
    </g>
</svg>