<?xml version="1.0" encoding="UTF-8" standalone="no"?>
<svg width="256px" height="256px" viewBox="0 0 256 256" version="1.1" xmlns="http://www.w3.org/2000/svg" xmlns:xlink="http://www.w3.org/1999/xlink" xmlns:sketch="http://www.bohemiancoding.com/sketch/ns">
    <!-- Generator: Sketch 3.5.2 (25235) - http://www.bohemiancoding.com/sketch -->
    <title>Rectangle 146</title>
    <desc>Created with Sketch.</desc>
    <defs>
        <filter x="-50%" y="-50%" width="200%" height="200%" filterUnits="objectBoundingBox" id="filter-1">
            <feOffset dx="0" dy="10" in="SourceAlpha" result="shadowOffsetOuter1"></feOffset>
            <feGaussianBlur stdDeviation="10" in="shadowOffsetOuter1" result="shadowBlurOuter1"></feGaussianBlur>
            <feColorMatrix values="0 0 0 0 0   0 0 0 0 0   0 0 0 0 0  0 0 0 0.105 0" in="shadowBlurOuter1" type="matrix" result="shadowMatrixOuter1"></feColorMatrix>
            <feMerge>
                <feMergeNode in="shadowMatrixOuter1"></feMergeNode>
                <feMergeNode in="SourceGraphic"></feMergeNode>
            </feMerge>
        </filter>
    </defs>
    <g id="Page-1" stroke="none" stroke-width="1" fill="none" fill-rule="evenodd" sketch:type="MSPage">
        <g id="Models" sketch:type="MSArtboardGroup" transform="translate(-1032.000000, -271.000000)">
            <g id="Group" sketch:type="MSLayerGroup" transform="translate(1016.000000, 255.000000)">
                <rect id="Rectangle-1" fill="#FFFFFF" filter="url(#filter-1)" sketch:type="MSShapeGroup" x="0" y="0" width="288" height="288"></rect>
                <rect id="Rectangle-146" fill="#F5F5F5" sketch:type="MSShapeGroup" x="16" y="16" width="256" height="256"></rect>
                <path d="M166.395789,174.225109 C161.27151,176.546826 157.633595,180.243075 154.72468,184.739871 C153.909307,186.000315 153.160969,187.303944 152.375891,188.58437 C149.039309,194.025774 143.748732,195.776408 137.608299,196.390677 C138.907094,193.351561 139.952576,190.389147 140.437932,187.271716 C141.583644,179.916603 141.123103,172.727465 138.106546,165.821613 C137.524506,164.489301 136.778424,163.253028 135.915031,162.08089 C134.271717,159.848122 132.109529,158.731094 129.308901,158.727548 C125.819557,158.723037 122.32989,159.025015 118.840547,158.718525 C117.280059,158.581233 115.754377,158.316639 114.37759,157.518025 C112.493853,156.425813 111.76453,154.829551 112.379765,152.756958 C112.897994,151.012769 113.338553,149.537686 111.155095,148.452886 C110.288802,148.02264 109.787009,146.668734 110.900815,145.72316 C111.453528,145.25424 111.111587,145.195907 110.858596,144.849776 C110.142808,143.869395 109.522416,142.897394 110.945612,141.868026 C111.789668,141.257624 111.426778,139.408372 110.456066,138.804416 C110.140552,138.608147 109.760582,138.516941 109.439589,138.327762 C107.782095,137.351248 107.53426,136.223262 108.808562,134.800711 C110.240137,133.201871 111.80127,131.72002 113.279898,130.162432 C114.229662,129.16207 115.101112,128.094995 115.893925,126.68888 C114.300887,126.663742 113.145184,126.176452 112.47935,124.673008 C113.042054,124.898928 113.448451,125.139994 113.885143,125.224432 C115.679285,125.570563 116.047653,125.245381 116.032184,123.457362 C115.999956,119.744676 116.039596,116.035536 117.540462,112.542003 C117.814079,111.905496 117.532083,111.560977 117.206901,111.113006 C114.161661,106.918509 114.377267,102.960568 117.656484,98.9265678 C123.776291,91.3993565 136.048133,89.1308156 142.798001,92.5602152 C143.455134,92.894099 143.98432,92.7793667 144.601167,92.5128397 C148.822091,90.6884031 153.092001,90.8121592 157.277796,92.513162 C167.090307,96.5004312 173.456981,103.936759 177.621506,113.411519 C180.786956,120.613226 182.145374,128.121422 179.861041,135.833946 C177.372382,144.235507 171.953537,149.940216 163.380844,152.363774 C161.672751,152.846552 159.894723,153.074727 158.122818,152.732464 C157.176921,152.549408 156.895892,152.789186 156.96067,153.759576 C157.199803,157.327557 158.00583,160.75889 159.44224,164.021992 C160.283072,165.931511 161.271833,167.778508 162.246735,169.625504 C163.215191,171.459932 164.922318,172.668488 166.395789,174.225109" id="Fill-1" fill="#FFFFFF" sketch:type="MSShapeGroup"></path>
            </g>
        </g>
    </g>
</svg>